<?xml version="1.0" encoding="UTF-8"?>
<svg xmlns="http://www.w3.org/2000/svg" xmlns:xlink="http://www.w3.org/1999/xlink" width="580" height="132" viewBox="0 0 580 132">
<defs>
    <style>
      .tweetanaliz-text, .tweetanaliz-bird {
        fill: #fff;
        fill-rule: evenodd;
        opacity: .05;
      }
    </style>
  </defs>
  <path id="TWEETANALIZ" class="tweetanaliz-text" d="M22.22,30.421H84.37l0.66,18.7H82.39l-1.21-5.17a18.538,18.538,0,0,0-2.09-4.73,7.864,7.864,0,0,0-4.18-3.08,20.515,20.515,0,0,0-7.48-1.21H58.74v57.75a10.109,10.109,0,0,0,1.1,5.28,5.7,5.7,0,0,0,3.52,2.42,7.016,7.016,0,0,1,.88.11,17.93,17.93,0,0,0,1.98.33,30.5,30.5,0,0,0,3.3.22v2.2H37.29v-2.2q5.5,0,7.92-1.65,2.418-1.428,2.42-6.27V34.931H40.37a31.091,31.091,0,0,0-7.92.88,9.924,9.924,0,0,0-5.06,4.07q-1.98,2.862-3.19,9.24H21.67Zm67.5,63.892L85.683,82.865l-4.1-11.448-3.456-9.072a13.843,13.843,0,0,0-2.376-3.96,5.163,5.163,0,0,0-3.816-1.368v-1.44H89.5v1.44a9.085,9.085,0,0,0-3.6.576,1.863,1.863,0,0,0-1.152,1.872l0.288,1.224,0.216,0.936,10.728,28.08,7.632-20.376a95.158,95.158,0,0,0-3.744-9.072,8.39,8.39,0,0,0-2.016-2.592,7.985,7.985,0,0,0-3.816-.648v-1.44h19.224v1.44a11.387,11.387,0,0,0-4.176.576,2.327,2.327,0,0,0-1.3,2.16l0.432,1.872,10.872,28.224,9.216-24.84a18.429,18.429,0,0,0,1.008-4.464q0-3.527-4.968-3.528v-1.44h14.4v1.44a8.15,8.15,0,0,0-4.536,1.872l-0.72,1.224L132.7,62.129l-0.576,1.512-3.384,9.216-3.816,10.512-3.456,10.008-3.456,10.656h-1.08L111.1,88.409l-5.688-14.832-11.16,30.456-1.152.072ZM145.37,58.457q-1.3-1.439-5.112-1.44v-1.44H178.49L178.778,65.8h-1.872a17.45,17.45,0,0,0-1.224-4.536,5.1,5.1,0,0,0-2.736-2.3,18.416,18.416,0,0,0-5.976-.72H156.026a1.872,1.872,0,0,0-1.656.5,3.606,3.606,0,0,0-.5,1.584V76.673h10.44a18.4,18.4,0,0,0,5.184-.5,3.882,3.882,0,0,0,2.16-1.8,15.694,15.694,0,0,0,1.224-4.464h1.656V86.681h-1.656l-0.72-3.816a5.215,5.215,0,0,0-1.008-1.8,4.617,4.617,0,0,0-2.232-1.008,19.728,19.728,0,0,0-2.52-.36h-0.216q-0.936-.071-2.016-0.072h-10.3V98.057a2.163,2.163,0,0,0,.5,1.584,2.537,2.537,0,0,0,1.656.648l3.888,0.288h4.176a32.2,32.2,0,0,0,4.968-.288,12.159,12.159,0,0,0,6.552-2.52A16.024,16.024,0,0,0,180.29,91h2.16l-3.24,12.24H140.258V101.8a19,19,0,0,0,1.944-.144q0.432-.07,1.08-0.144a3.321,3.321,0,0,1,.648-0.144,3.276,3.276,0,0,0,2.016-1.728,8.807,8.807,0,0,0,.648-3.816v-32.9a7.159,7.159,0,0,0-1.224-4.464h0Zm43.992,0q-1.3-1.439-5.112-1.44v-1.44h38.232L222.77,65.8H220.9a17.489,17.489,0,0,0-1.224-4.536,5.1,5.1,0,0,0-2.736-2.3,18.42,18.42,0,0,0-5.976-.72H200.018a1.87,1.87,0,0,0-1.656.5,3.58,3.58,0,0,0-.5,1.584V76.673H208.3a18.4,18.4,0,0,0,5.184-.5,3.882,3.882,0,0,0,2.16-1.8,15.761,15.761,0,0,0,1.224-4.464h1.656V86.681h-1.656l-0.72-3.816a5.248,5.248,0,0,0-1.008-1.8,4.622,4.622,0,0,0-2.232-1.008,19.783,19.783,0,0,0-2.52-.36H210.17q-0.937-.071-2.016-0.072h-10.3V98.057a2.158,2.158,0,0,0,.5,1.584,2.534,2.534,0,0,0,1.656.648l3.888,0.288h4.176a32.2,32.2,0,0,0,4.968-.288,12.165,12.165,0,0,0,6.552-2.52A16.033,16.033,0,0,0,224.282,91h2.16l-3.24,12.24H184.25V101.8a19,19,0,0,0,1.944-.144q0.432-.07,1.08-0.144a3.29,3.29,0,0,1,.648-0.144,3.278,3.278,0,0,0,2.016-1.728,8.807,8.807,0,0,0,.648-3.816v-32.9a7.166,7.166,0,0,0-1.224-4.464h0Zm39.671-2.88h40.68l0.432,12.24h-1.728l-0.792-3.384a12.122,12.122,0,0,0-1.368-3.1,5.145,5.145,0,0,0-2.736-2.016,13.428,13.428,0,0,0-4.9-.792h-5.688v37.8a6.621,6.621,0,0,0,.72,3.456,3.73,3.73,0,0,0,2.3,1.584,4.61,4.61,0,0,1,.576.072,11.676,11.676,0,0,0,1.3.216,19.929,19.929,0,0,0,2.16.144v1.44H238.9V101.8q3.6,0,5.184-1.08,1.583-.935,1.584-4.1V58.529h-4.752a20.351,20.351,0,0,0-5.184.576,6.494,6.494,0,0,0-3.312,2.664,16.423,16.423,0,0,0-2.088,6.048h-1.656Zm71.976-26.366h2.09l28.27,64.57a15.308,15.308,0,0,0,3.74,5.94,8.274,8.274,0,0,0,5.39,1.54v1.98h-28.16v-2.2l1.76,0.22q5.94,0,5.94-4.07a12.92,12.92,0,0,0-.99-4.29l-5.72-13.53h-28.82l-5.39,13.53-0.66,3.74a3.561,3.561,0,0,0,2.09,3.52,12.089,12.089,0,0,0,5.61,1.1v1.98h-21.67v-1.98a7.263,7.263,0,0,0,5.17-2.09q2.2-1.869,5.06-8.8Zm-14.52,45.65h25.3l-12.65-30.03Zm65.817-13.884a15.549,15.549,0,0,0-3.1-3.1,7.3,7.3,0,0,0-3.888-.864v-1.44h12.384l27.5,34.488,0.144-24.192q0-6.048-2.088-7.7a8.076,8.076,0,0,0-4.752-1.152v-1.44h16.848v1.368a13.99,13.99,0,0,0-3.888.72,4,4,0,0,0-2.088,2.376,14.228,14.228,0,0,0-.792,5.256v38.736l-1.3.072L355.546,64.577v30.1a14.993,14.993,0,0,0,.36,2.592,6.524,6.524,0,0,0,1.08,2.664,3.532,3.532,0,0,0,1.944,1.368,10.221,10.221,0,0,0,3.384.5v1.44H345.322v-1.368l3.6-.5a4.923,4.923,0,0,0,1.656-1.008,4.838,4.838,0,0,0,1.3-2.736,24.66,24.66,0,0,0,.432-5.256V60.977Zm69.263-6.192h1.368l18.5,42.264a10.028,10.028,0,0,0,2.448,3.888,5.416,5.416,0,0,0,3.528,1.008v1.3H428.985V101.8l1.152,0.144q3.888,0,3.888-2.664a8.457,8.457,0,0,0-.648-2.808l-3.744-8.856H410.769l-3.528,8.856-0.432,2.448a2.332,2.332,0,0,0,1.368,2.3,7.911,7.911,0,0,0,3.672.72v1.3H397.665v-1.3a4.749,4.749,0,0,0,3.384-1.368q1.44-1.223,3.312-5.76Zm-9.5,29.88h16.56l-8.28-19.656Zm43.2-25.056a3.325,3.325,0,0,0-1.728-1.872,9.693,9.693,0,0,0-4.1-.72v-1.44h20.376v1.44q-3.672,0-5.256,1.224-1.512,1.152-1.512,4.464v35.28a2.024,2.024,0,0,0,1.08,1.944,6.135,6.135,0,0,1,1.008.288,5.153,5.153,0,0,0,1.872.36h5.76l5.472-.36a7.074,7.074,0,0,0,2.088-.288l0.5-.144a12.362,12.362,0,0,0,1.728-.648,10.755,10.755,0,0,0,4.1-2.952,18.567,18.567,0,0,0,3.24-5.472h1.728l-3.384,12.528H449.433V101.8a10.812,10.812,0,0,0,2.736-.288,5.52,5.52,0,0,0,2.016-.72q1.583-.935,1.584-4.536v-32.9a10.815,10.815,0,0,0-.5-3.744h0Zm45-.432a2.364,2.364,0,0,0-1.512-1.512,8.645,8.645,0,0,0-2.448-.432q-1.8-.143-2.448-0.216v-1.44h21.312v1.44q-0.864,0-2.3.144a17.55,17.55,0,0,0-2.088.36,2.722,2.722,0,0,0-1.8,1.512,8.084,8.084,0,0,0-.792,3.888V96.545a5.486,5.486,0,0,0,1.3,3.816q1.366,1.442,5.688,1.44v1.44H493.856V101.8a14.836,14.836,0,0,0,4.536-.5,3.038,3.038,0,0,0,1.944-1.8,7.706,7.706,0,0,0,.5-3.24V63.785a13.029,13.029,0,0,0-.576-4.608h0Zm48.239-.792H530.791a10.47,10.47,0,0,0-6.984,2.3q-2.664,2.233-3.24,7.128H518.7l1.44-12.24h37.944V56.8L526.9,100.433h19.944q8.784,0,10.944-9.864h1.728l-1.728,12.672H517.183l-0.072-1.152Z"/>
  <path id="bird" class="tweetanaliz-bird" d="M511.332,38.118a3.632,3.632,0,0,0,1.311-.353,3.751,3.751,0,0,0,.96-0.572,3.587,3.587,0,0,1-1.566,2.007l0,0.009a4.814,4.814,0,0,0,1.96-.558,9.459,9.459,0,0,1-1.69,1.835c0,0.031,0,.061,0,0.093s0,0.089,0,.134q0,0.125,0,.251A10.028,10.028,0,0,1,497,49.5c0.122,0.006.246,0.009,0.37,0.009a7.526,7.526,0,0,0,4.577-1.544,3.578,3.578,0,0,1-3.265-2.455,4.67,4.67,0,0,0,1.76-.06,3.443,3.443,0,0,1-3.027-3.418c0-.033,0-0.065,0-0.1a3.425,3.425,0,0,0,1.718.46h0.015a3.489,3.489,0,0,1-1.216-4.745c0.03,0.039.061,0.078,0.092,0.116l-0.017-.032a9.217,9.217,0,0,0,7.232,3.617A3.577,3.577,0,0,1,508.735,37,3.747,3.747,0,0,1,511.332,38.118Z"/>
</svg>
