<?xml version="1.0" encoding="UTF-8"?>
<svg xmlns="http://www.w3.org/2000/svg" xmlns:xlink="http://www.w3.org/1999/xlink" width="624" height="624" viewBox="0 0 624 624">
<defs>
    <style>
      .cls-1 {
        fill: transparent;
      }

      .cls-2, .cls-3 {
        fill: #fff;
        fill-rule: evenodd;
      }
    </style>
  </defs>
  <rect id="canvas" class="cls-1" width="624" height="624"/>
  <path id="TWEETANALIZ" class="cls-2" d="M44.22,276.421h62.15l0.66,18.7h-2.64l-1.21-5.17a18.543,18.543,0,0,0-2.09-4.73,7.866,7.866,0,0,0-4.18-3.08,20.517,20.517,0,0,0-7.48-1.21H80.74v57.75a10.108,10.108,0,0,0,1.1,5.28,5.7,5.7,0,0,0,3.52,2.42,7.016,7.016,0,0,1,.88.11,17.93,17.93,0,0,0,1.98.33,30.5,30.5,0,0,0,3.3.22v2.2H59.29v-2.2q5.5,0,7.92-1.65,2.418-1.428,2.42-6.27v-58.19H62.37a31.1,31.1,0,0,0-7.92.88,9.925,9.925,0,0,0-5.06,4.07q-1.98,2.862-3.19,9.24H43.67Zm67.5,63.892-4.032-11.448-4.1-11.448-3.456-9.072a13.851,13.851,0,0,0-2.376-3.96,5.164,5.164,0,0,0-3.816-1.368v-1.44H111.5v1.44a9.1,9.1,0,0,0-3.6.576,1.863,1.863,0,0,0-1.152,1.872l0.288,1.224,0.216,0.936,10.728,28.08,7.632-20.376a95.349,95.349,0,0,0-3.744-9.072,8.4,8.4,0,0,0-2.016-2.592,7.986,7.986,0,0,0-3.816-.648v-1.44h19.224v1.44a11.4,11.4,0,0,0-4.176.576,2.328,2.328,0,0,0-1.3,2.16l0.432,1.872,10.872,28.224,9.216-24.84a18.426,18.426,0,0,0,1.008-4.464q0-3.526-4.968-3.528v-1.44h14.4v1.44a8.156,8.156,0,0,0-4.536,1.872l-0.72,1.224-0.792,2.016-0.576,1.512-3.384,9.216-3.816,10.512-3.456,10.008-3.456,10.656h-1.08L133.1,334.409l-5.688-14.832-11.16,30.456-1.152.072Zm55.655-35.856q-1.3-1.438-5.112-1.44v-1.44H200.49l0.288,10.224h-1.872a17.45,17.45,0,0,0-1.224-4.536,5.1,5.1,0,0,0-2.736-2.3,18.424,18.424,0,0,0-5.976-.72H178.026a1.873,1.873,0,0,0-1.656.5,3.609,3.609,0,0,0-.5,1.584v16.344h10.44a18.368,18.368,0,0,0,5.184-.5,3.878,3.878,0,0,0,2.16-1.8,15.685,15.685,0,0,0,1.224-4.464h1.656v16.776h-1.656l-0.72-3.816a5.218,5.218,0,0,0-1.008-1.8,4.62,4.62,0,0,0-2.232-1.008,19.782,19.782,0,0,0-2.52-.36h-0.216q-0.936-.071-2.016-0.072h-10.3v18.432a2.162,2.162,0,0,0,.5,1.584,2.533,2.533,0,0,0,1.656.648l3.888,0.288h4.176a32.2,32.2,0,0,0,4.968-.288,12.159,12.159,0,0,0,6.552-2.52A16.019,16.019,0,0,0,202.29,337h2.16l-3.24,12.24H162.258V347.8a19,19,0,0,0,1.944-.144q0.432-.07,1.08-0.144a3.321,3.321,0,0,1,.648-0.144,3.275,3.275,0,0,0,2.016-1.728,8.806,8.806,0,0,0,.648-3.816v-32.9a7.161,7.161,0,0,0-1.224-4.464h0Zm43.992,0q-1.3-1.438-5.112-1.44v-1.44h38.232L244.77,311.8H242.9a17.489,17.489,0,0,0-1.224-4.536,5.1,5.1,0,0,0-2.736-2.3,18.428,18.428,0,0,0-5.976-.72H222.018a1.87,1.87,0,0,0-1.656.5,3.583,3.583,0,0,0-.5,1.584v16.344H230.3a18.368,18.368,0,0,0,5.184-.5,3.878,3.878,0,0,0,2.16-1.8,15.752,15.752,0,0,0,1.224-4.464h1.656v16.776h-1.656l-0.72-3.816a5.251,5.251,0,0,0-1.008-1.8,4.624,4.624,0,0,0-2.232-1.008,19.837,19.837,0,0,0-2.52-.36H232.17q-0.937-.071-2.016-0.072h-10.3v18.432a2.158,2.158,0,0,0,.5,1.584,2.531,2.531,0,0,0,1.656.648l3.888,0.288h4.176a32.2,32.2,0,0,0,4.968-.288,12.165,12.165,0,0,0,6.552-2.52,16.027,16.027,0,0,0,4.68-6.768h2.16l-3.24,12.24H206.25V347.8a19,19,0,0,0,1.944-.144q0.432-.07,1.08-0.144a3.29,3.29,0,0,1,.648-0.144,3.278,3.278,0,0,0,2.016-1.728,8.806,8.806,0,0,0,.648-3.816v-32.9a7.167,7.167,0,0,0-1.224-4.464h0Zm39.671-2.88h40.68l0.432,12.24h-1.728l-0.792-3.384a12.131,12.131,0,0,0-1.368-3.1,5.148,5.148,0,0,0-2.736-2.016,13.441,13.441,0,0,0-4.9-.792h-5.688v37.8a6.619,6.619,0,0,0,.72,3.456,3.729,3.729,0,0,0,2.3,1.584,4.61,4.61,0,0,1,.576.072,11.676,11.676,0,0,0,1.3.216,19.929,19.929,0,0,0,2.16.144v1.44H260.9V347.8q3.6,0,5.184-1.08,1.582-.934,1.584-4.1V304.529h-4.752a20.378,20.378,0,0,0-5.184.576,6.5,6.5,0,0,0-3.312,2.664,16.427,16.427,0,0,0-2.088,6.048h-1.656Zm71.976-26.366h2.09l28.27,64.57a15.308,15.308,0,0,0,3.74,5.94,8.272,8.272,0,0,0,5.39,1.54v1.98h-28.16v-2.2l1.76,0.22q5.94,0,5.94-4.07a12.92,12.92,0,0,0-.99-4.29l-5.72-13.53h-28.82l-5.39,13.53-0.66,3.74a3.562,3.562,0,0,0,2.09,3.52,12.089,12.089,0,0,0,5.61,1.1v1.98h-21.67v-1.98a7.262,7.262,0,0,0,5.17-2.09q2.2-1.869,5.06-8.8Zm-14.52,45.65h25.3l-12.65-30.03Zm65.817-13.884a15.565,15.565,0,0,0-3.1-3.1,7.3,7.3,0,0,0-3.888-.864v-1.44h12.384l27.5,34.488,0.144-24.192q0-6.048-2.088-7.7a8.078,8.078,0,0,0-4.752-1.152v-1.44h16.848v1.368a14,14,0,0,0-3.888.72,4,4,0,0,0-2.088,2.376,14.229,14.229,0,0,0-.792,5.256v38.736l-1.3.072-31.752-39.528v30.1a14.986,14.986,0,0,0,.36,2.592,6.522,6.522,0,0,0,1.08,2.664,3.531,3.531,0,0,0,1.944,1.368,10.221,10.221,0,0,0,3.384.5v1.44H367.322v-1.368l3.6-.5a4.923,4.923,0,0,0,1.656-1.008,4.837,4.837,0,0,0,1.3-2.736,24.654,24.654,0,0,0,.432-5.256V306.977Zm69.263-6.192h1.368l18.5,42.264a10.03,10.03,0,0,0,2.448,3.888,5.416,5.416,0,0,0,3.528,1.008v1.3H450.985V347.8l1.152,0.144q3.888,0,3.888-2.664a8.457,8.457,0,0,0-.648-2.808l-3.744-8.856H432.769l-3.528,8.856-0.432,2.448a2.332,2.332,0,0,0,1.368,2.3,7.911,7.911,0,0,0,3.672.72v1.3H419.665v-1.3a4.749,4.749,0,0,0,3.384-1.368q1.44-1.222,3.312-5.76Zm-9.5,29.88h16.56l-8.28-19.656Zm43.2-25.056a3.326,3.326,0,0,0-1.728-1.872,9.7,9.7,0,0,0-4.1-.72v-1.44h20.376v1.44q-3.672,0-5.256,1.224-1.512,1.154-1.512,4.464v35.28a2.023,2.023,0,0,0,1.08,1.944,6.159,6.159,0,0,1,1.008.288,5.153,5.153,0,0,0,1.872.36h5.76l5.472-.36a7.06,7.06,0,0,0,2.088-.288l0.5-.144a12.2,12.2,0,0,0,1.728-.648,10.751,10.751,0,0,0,4.1-2.952,18.554,18.554,0,0,0,3.24-5.472h1.728l-3.384,12.528H471.433V347.8a10.812,10.812,0,0,0,2.736-.288,5.52,5.52,0,0,0,2.016-.72q1.583-.934,1.584-4.536v-32.9a10.817,10.817,0,0,0-.5-3.744h0Zm45-.432a2.367,2.367,0,0,0-1.512-1.512,8.687,8.687,0,0,0-2.448-.432q-1.8-.143-2.448-0.216v-1.44h21.312v1.44q-0.864,0-2.3.144a17.759,17.759,0,0,0-2.088.36,2.722,2.722,0,0,0-1.8,1.512,8.086,8.086,0,0,0-.792,3.888v33.624a5.487,5.487,0,0,0,1.3,3.816q1.366,1.442,5.688,1.44v1.44H515.856V347.8a14.836,14.836,0,0,0,4.536-.5,3.037,3.037,0,0,0,1.944-1.8,7.7,7.7,0,0,0,.5-3.24V309.785a13.031,13.031,0,0,0-.576-4.608h0Zm48.239-.792H552.791a10.473,10.473,0,0,0-6.984,2.3q-2.664,2.233-3.24,7.128H540.7l1.44-12.24h37.944V302.8L548.9,346.433h19.944q8.784,0,10.944-9.864h1.728l-1.728,12.672H539.183l-0.072-1.152Z"/>
  <path id="bird" class="cls-3" d="M533.332,284.118a3.659,3.659,0,0,0,1.311-.353,3.75,3.75,0,0,0,.96-0.572,3.59,3.59,0,0,1-1.566,2.008l0,0.008a4.812,4.812,0,0,0,1.96-.557,9.469,9.469,0,0,1-1.69,1.835c0,0.031,0,.061,0,0.092s0,0.09,0,.134c0,0.084,0,.167,0,0.251A10.029,10.029,0,0,1,519,295.5c0.122,0.006.246,0.009,0.37,0.009a7.529,7.529,0,0,0,4.577-1.544,3.577,3.577,0,0,1-3.265-2.454,4.694,4.694,0,0,0,1.76-.06,3.443,3.443,0,0,1-3.027-3.418c0-.033,0-0.065,0-0.1a3.429,3.429,0,0,0,1.718.461h0.015a3.489,3.489,0,0,1-1.216-4.745c0.03,0.039.061,0.078,0.092,0.116l-0.017-.031a9.219,9.219,0,0,0,7.232,3.617A3.577,3.577,0,0,1,530.735,283,3.746,3.746,0,0,1,533.332,284.118Z"/>
</svg>
